<svg width="941" height="306" viewBox="0 0 941 306" fill="none" xmlns="http://www.w3.org/2000/svg">
<rect width="941" height="306" fill="white"/>
<path d="M347.725 152.665C343.783 149.162 333.492 173.087 332.587 176.625C331.607 180.453 326.882 192.668 332.151 195.302C345.714 202.083 364.917 209.664 380.07 204.613" stroke="black" stroke-width="3" stroke-linecap="round"/>
<path d="M398.01 194.257C393.781 194.257 386.337 195.737 382.927 192.623C377.476 187.646 379.241 175.415 379.387 168.991C379.539 162.337 382.149 152.242 390.169 151.239C395.191 150.611 399.335 151.005 402.693 155.051C410.448 164.392 410.477 179.477 403.891 189.356" stroke="black" stroke-width="3" stroke-linecap="round"/>
<path d="M426.76 175.333C426.76 169.067 423.439 145.122 430.681 142.225C434.483 140.704 441.561 153.175 442.987 155.294C444.244 157.161 447.751 165.59 450.284 166.293C453.654 167.23 457.615 130.786 465.966 131.226C471.171 131.5 476.64 145.663 478.708 149.195C483.135 156.757 487.216 164.258 490.47 172.392" stroke="black" stroke-width="3" stroke-linecap="round"/>
<path d="M500.271 136.127V165.531" stroke="black" stroke-width="3" stroke-linecap="round"/>
<path d="M500.271 136.127V135.146" stroke="black" stroke-width="3" stroke-linecap="round"/>
<path d="M500.271 110.643V114.563" stroke="black" stroke-width="3" stroke-linecap="round"/>
<path d="M519.874 155.73C519.874 145.836 523.565 128.285 535.557 128.285C543.451 128.285 547.319 141.49 547.319 147.888" stroke="black" stroke-width="3" stroke-linecap="round"/>
<path d="M560.06 142.988C560.06 140.127 559.951 137.242 560.06 134.384C560.154 131.94 564.267 129.871 565.941 128.285C568.863 125.517 572.367 125.89 575.253 128.775C579 132.523 576.935 138.76 572.748 140.592C569.478 142.022 565.708 142.74 562.62 144.403C560.245 145.682 559.835 143.855 558.1 142.988" stroke="black" stroke-width="3" stroke-linecap="round"/>
<path d="M574.763 132.206C574.763 152.425 574.884 172.648 574.763 192.866C574.698 203.72 573.587 207.775 563.981 212.578" stroke="black" stroke-width="3" stroke-linecap="round"/>
<path d="M655.135 97.9008C646.376 97.9008 631.792 108.925 631.611 118.484C631.556 121.421 630.516 127.124 632.156 129.701C633.872 132.398 638.576 133.687 641.195 135.146C648.286 139.099 655.863 142.725 656.115 151.809C656.358 160.568 650.162 162.137 643.373 165.531" stroke="black" stroke-width="3" stroke-linecap="round"/>
<path d="M672.778 165.531C664.956 163.967 666.5 151.903 666.897 146.146C667.282 140.556 678.304 138.087 682.579 138.087C689.552 138.087 694.232 147.951 694.232 154.259C694.232 158.218 686.993 162.097 684.539 164.551C681.54 167.55 679.07 169.878 675.718 172.392" stroke="black" stroke-width="3" stroke-linecap="round"/>
<path d="M701.202 171.412C701.202 162.789 702.303 154.628 708.825 148.106C712.499 144.433 720.611 145.104 722.983 149.849C724.573 153.028 726.735 161.244 723.31 163.789C719.22 166.827 710.447 170.432 705.123 170.432" stroke="black" stroke-width="3" stroke-linecap="round"/>
<path d="M731.587 161.61C731.587 153.739 735.535 144.459 744.329 144.948C750.922 145.314 753.509 157.788 755.11 162.591" stroke="black" stroke-width="3" stroke-linecap="round"/>
<path d="M790.396 93V161.61" stroke="black" stroke-width="3" stroke-linecap="round"/>
<path d="M779.614 110.643H813.919" stroke="black" stroke-width="3" stroke-linecap="round"/>
<path d="M829.602 151.809C824.955 151.293 821.371 141.646 820.018 138.087C818.357 133.72 817.481 129.252 817.84 124.583C818.449 116.667 835.4 116.19 839.784 119.9C844.309 123.729 843.388 136.061 841.853 140.973C840.248 146.111 836.093 149.238 832.542 152.789" stroke="black" stroke-width="3" stroke-linecap="round"/>
<path d="M302.839 177.597C301.723 182.619 290.125 187.63 286.392 189.595C263.922 201.422 239.87 210.241 214.944 215.209C175.9 222.989 132.498 225.537 94.1564 213.591C80.3077 209.276 67.6106 203.344 58.7019 192.156C55.2873 187.868 49.7405 176.384 43.1991 176.384" stroke="black" stroke-width="3" stroke-linecap="round"/>
<path d="M67.4644 171.531C79.0304 183.097 91.8558 200.649 110.064 200.649C134.458 200.649 160.038 202.918 184.208 199.436C204.323 196.538 224.628 197.097 244.602 193.976C250.666 193.029 256.057 191.889 261.588 189.123C265.175 187.33 268.122 184.036 271.294 182.45" stroke="black" stroke-width="3" stroke-linecap="round"/>
<path d="M42.7062 247.886C44.6828 249.122 43.9194 239.786 43.9194 238.854C43.9194 227.014 43.9194 215.173 43.9194 203.332C43.9194 198.162 40.4563 178.304 46.8852 175.09C58.1498 169.458 73.823 164.781 86.3165 164.238C104.712 163.438 122.057 170.187 139.768 173.877" stroke="black" stroke-width="3" stroke-linecap="round"/>
</svg>
